<svg aria-hidden="true" style="width:0;height:0;position:absolute;overflow:hidden" xmlns="http://www.w3.org/2000/svg"><defs><symbol id="icon-menu-hamburger" viewBox="0 0 32 32"><path d="M6.4 11.733V9.6h19.2v2.133H6.4zm0 5.334h19.2v-2.133H6.4v2.133zm0 5.333h19.2v-2.133H6.4V22.4z"/></symbol><symbol id="icon-chocolate" viewBox="0 0 31 32"><path d="M0 0h30.545v32H0V0z"/><path d="M-244.364-33.455h545.455V10448h-545.455V-33.455z"/><path d="M3.765 19.89 14.052 3.258l.611-.643 7.862 5.242.054 3.163 1.919 3.13-8.476 13.437-12.256-7.696z"/><path fill="none" stroke="#fd9222" style="stroke:var(--color4,#fd9222)" stroke-linejoin="round" stroke-linecap="round" stroke-width="2.618" d="M20.651 23.521 7.11 15.06m3.734-6.125 13.541 8.461m-14.238 8.02L21.349 7.041m4.592 7.803c-2.902-1.813-4.041-3.23-2.174-6.293l-9.188-5.742L3.377 21.184l13.541 8.461 9.024-14.802z"/></symbol><symbol id="icon-scroll-down" viewBox="0 0 32 32"><path d="M16.947 17.867a1.334 1.334 0 0 1-1.894 0l-6.107-6.12a1.334 1.334 0 1 0-1.894 1.88l6.12 6.12a4.001 4.001 0 0 0 5.654 0l6.12-6.12a1.337 1.337 0 0 0-.434-2.172 1.331 1.331 0 0 0-1.46.292l-6.107 6.12z"/></symbol><symbol id="icon-close-btn" viewBox="0 0 32 32"><path d="m26.667 7.303-1.97-1.97-7.808 7.808-7.808-7.808-1.97 1.97 7.808 7.808-7.808 7.808 1.97 1.97 7.808-7.808 7.808 7.808 1.97-1.97-7.808-7.808 7.808-7.808z"/></symbol><symbol id="icon-twitter" viewBox="0 0 32 32"><path stroke-linejoin="round" stroke-linecap="round" stroke-width="2.4" d="M30.667 4a14.53 14.53 0 0 1-4.187 2.04 5.975 5.975 0 0 0-6.637-1.661A5.981 5.981 0 0 0 16 10.04v1.333c-2.343.061-4.665-.459-6.759-1.513S5.347 6.717 4 4.799c0 0-5.333 12.533 6.667 17.867a15.519 15.519 0 0 1-9.333 2.667c12 6.667 26.667 0 26.667-15.333a5.966 5.966 0 0 0-.107-1.107A10.288 10.288 0 0 0 30.667 4z"/></symbol><symbol id="icon-instagram" viewBox="0 0 32 32"><path fill="#afb1b8" style="fill:var(--color3, )" d="M31.969 9.408c-.075-1.7-.35-2.869-.744-3.882a7.806 7.806 0 0 0-1.851-2.838A7.867 7.867 0 0 0 26.542.844C25.523.45 24.36.175 22.66.1 20.947.019 20.403 0 16.059 0s-4.888.019-6.595.094c-1.7.075-2.869.35-3.882.744a7.803 7.803 0 0 0-2.838 1.85A7.867 7.867 0 0 0 .9 5.52C.506 6.539.231 7.702.156 9.402c-.081 1.713-.1 2.257-.1 6.601s.019 4.888.094 6.595c.075 1.7.35 2.869.744 3.882a7.895 7.895 0 0 0 1.85 2.838 7.867 7.867 0 0 0 2.832 1.844c1.019.394 2.182.669 3.882.744 1.706.075 2.25.094 6.595.094s4.888-.019 6.595-.094c1.7-.075 2.869-.35 3.882-.744a8.184 8.184 0 0 0 4.682-4.682c.394-1.019.669-2.182.744-3.882.075-1.707.094-2.251.094-6.595s-.006-4.888-.081-6.595zm-2.882 13.065c-.069 1.563-.331 2.407-.55 2.969a5.31 5.31 0 0 1-3.038 3.038c-.563.219-1.413.481-2.969.55-1.688.075-2.194.094-6.464.094s-4.782-.019-6.464-.094c-1.563-.069-2.407-.331-2.969-.55a4.926 4.926 0 0 1-1.838-1.194 4.974 4.974 0 0 1-1.194-1.838c-.219-.563-.481-1.413-.55-2.969-.075-1.688-.094-2.194-.094-6.464s.019-4.782.094-6.464c.069-1.563.331-2.407.55-2.969a4.868 4.868 0 0 1 1.2-1.838A4.974 4.974 0 0 1 6.639 3.55c.563-.219 1.413-.481 2.969-.55 1.688-.075 2.194-.094 6.464-.094 4.276 0 4.782.019 6.464.094 1.563.069 2.407.331 2.969.55a4.914 4.914 0 0 1 1.838 1.194 4.974 4.974 0 0 1 1.194 1.838c.219.563.481 1.413.55 2.969.075 1.688.094 2.194.094 6.464s-.019 4.77-.094 6.458z"/><path fill="#afb1b8" style="fill:var(--color3, )" d="M16.059 7.783c-4.538 0-8.22 3.682-8.22 8.22s3.682 8.22 8.22 8.22c4.539 0 8.22-3.682 8.22-8.22s-3.682-8.22-8.22-8.22zm0 13.552a5.333 5.333 0 0 1 0-10.664 5.333 5.333 0 0 1 0 10.664zM26.524 7.458a1.919 1.919 0 1 1-3.838 0 1.919 1.919 0 0 1 3.838 0z"/></symbol><symbol id="icon-simply-chocolate" viewBox="0 0 423 32"><path d="M13.518 30.208c-1.563 0-3.086-.151-4.567-.453-1.454-.274-2.784-.658-3.991-1.152-1.179-.494-2.181-1.029-3.003-1.605l2.715-5.143a18.659 18.659 0 0 0 2.88 1.646 18.68 18.68 0 0 0 3.25 1.029c1.125.219 2.249.329 3.374.329 1.234 0 2.29-.137 3.168-.411.905-.274 1.591-.658 2.057-1.152a2.462 2.462 0 0 0 .741-1.81c0-.658-.261-1.193-.782-1.605s-1.207-.754-2.057-1.029c-.823-.302-1.742-.59-2.757-.864s-2.043-.59-3.086-.946a14.802 14.802 0 0 1-2.798-1.399c-.823-.576-1.495-1.303-2.016-2.181s-.782-1.975-.782-3.291c0-1.975.535-3.689 1.605-5.143 1.097-1.454 2.633-2.578 4.608-3.374C14.052.831 16.37.42 19.03.42c1.947 0 3.785.219 5.513.658 1.728.411 3.209 1.015 4.443 1.81l-2.51 5.102a11.983 11.983 0 0 0-3.662-1.646 15.05 15.05 0 0 0-4.155-.576c-1.289 0-2.4.151-3.333.453-.905.302-1.605.727-2.098 1.275-.466.521-.699 1.125-.699 1.81s.247 1.248.741 1.687c.521.411 1.207.768 2.057 1.07.85.274 1.783.549 2.798.823s2.03.59 3.045.946c1.015.357 1.947.809 2.798 1.358s1.536 1.248 2.057 2.098c.521.823.782 1.865.782 3.127 0 1.975-.549 3.703-1.646 5.184-1.097 1.454-2.647 2.592-4.649 3.415-1.975.795-4.306 1.193-6.994 1.193zm14.963-.494 5.76-28.8h6.706l-5.76 28.8h-6.706zm12.266 0 5.76-28.8h5.431l8.187 20.407-2.88-.041L73.208.914h5.719l-5.719 28.8h-6.254l3.826-19.296h1.275L59.342 26.669H56.38l-6.789-16.293 1.234.123-3.826 19.214h-6.254zm38.06 0 5.76-28.8H96.21c3.593 0 6.363.795 8.311 2.386 1.975 1.563 2.962 3.758 2.962 6.583 0 2.414-.562 4.526-1.687 6.336-1.125 1.783-2.743 3.154-4.855 4.114-2.085.96-4.567 1.44-7.447 1.44h-9.339l3.538-3.045-2.181 10.985h-6.706zm8.723-10.203-2.345-3.168h8.599c2.194 0 3.895-.494 5.102-1.481 1.234-1.015 1.851-2.482 1.851-4.402 0-1.399-.466-2.427-1.399-3.086-.933-.686-2.249-1.029-3.95-1.029h-8.105l3.538-3.25-3.291 16.416zm19.775 10.203 5.76-28.8h6.706l-4.69 23.369h14.441l-1.111 5.431h-21.106zm27.782 0 2.345-11.849.741 4.197L129.698.915h6.665l6.459 16.169-4.032.041L151.832.915h6.871l-16.869 21.189 2.263-4.238-2.345 11.849h-6.665zm45.832.494c-2.222 0-4.293-.357-6.213-1.07-1.893-.741-3.538-1.783-4.937-3.127s-2.496-2.921-3.291-4.731c-.768-1.81-1.152-3.799-1.152-5.966s.384-4.155 1.152-5.966a14.688 14.688 0 0 1 3.291-4.731 14.77 14.77 0 0 1 4.978-3.086C176.64.79 178.71.42 180.96.42c2.496 0 4.745.439 6.747 1.317 2.03.85 3.73 2.112 5.102 3.785l-4.279 3.95c-.987-1.125-2.085-1.961-3.291-2.51-1.207-.576-2.523-.864-3.95-.864-1.344 0-2.578.219-3.703.658s-2.098 1.07-2.921 1.893a8.921 8.921 0 0 0-1.934 2.921c-.439 1.125-.658 2.373-.658 3.744s.219 2.619.658 3.744c.466 1.125 1.111 2.098 1.934 2.921s1.797 1.454 2.921 1.893c1.125.439 2.359.658 3.703.658 1.426 0 2.743-.274 3.95-.823 1.207-.576 2.304-1.44 3.291-2.592l4.279 3.95c-1.371 1.673-3.072 2.949-5.102 3.826-2.002.878-4.265 1.317-6.789 1.317zM215.825.914h6.665v28.8h-6.665V.914zm-13.083 28.8h-6.665V.914h6.665v28.8zm13.577-11.808h-14.071v-5.637h14.071v5.637zm25.738 12.302c-2.277 0-4.389-.37-6.336-1.111-1.92-.741-3.593-1.783-5.019-3.127a14.67 14.67 0 0 1-3.29-4.731c-.768-1.81-1.152-3.785-1.152-5.925s.384-4.114 1.152-5.925c.795-1.81 1.905-3.387 3.331-4.731s3.099-2.386 5.019-3.127C237.682.79 239.767.42 242.016.42c2.277 0 4.361.37 6.254 1.111 1.92.741 3.579 1.783 4.978 3.127a14.397 14.397 0 0 1 3.333 4.731c.795 1.783 1.193 3.758 1.193 5.925 0 2.139-.398 4.128-1.193 5.966a14.368 14.368 0 0 1-3.333 4.731c-1.399 1.317-3.058 2.345-4.978 3.086-1.893.741-3.963 1.111-6.213 1.111zm-.041-5.678c1.289 0 2.469-.219 3.538-.658 1.097-.439 2.057-1.07 2.88-1.893s1.454-1.797 1.893-2.921c.466-1.125.699-2.373.699-3.744s-.233-2.619-.699-3.744a8.392 8.392 0 0 0-1.893-2.921c-.795-.823-1.742-1.454-2.839-1.893s-2.29-.658-3.579-.658c-1.289 0-2.482.219-3.579.658-1.07.439-2.016 1.07-2.839 1.893s-1.467 1.797-1.934 2.921c-.439 1.125-.658 2.373-.658 3.744 0 1.344.219 2.592.658 3.744a9.235 9.235 0 0 0 1.893 2.921c.823.823 1.783 1.454 2.88 1.893s2.29.658 3.579.658zm33.317 5.678c-2.222 0-4.293-.357-6.213-1.07-1.893-.741-3.538-1.783-4.937-3.127s-2.496-2.921-3.291-4.731c-.768-1.81-1.152-3.799-1.152-5.966s.384-4.155 1.152-5.966a14.688 14.688 0 0 1 3.291-4.731 14.77 14.77 0 0 1 4.978-3.086C271.054.79 273.124.42 275.374.42c2.496 0 4.745.439 6.747 1.317 2.03.85 3.73 2.112 5.102 3.785l-4.279 3.95c-.987-1.125-2.085-1.961-3.291-2.51-1.207-.576-2.523-.864-3.95-.864-1.344 0-2.578.219-3.703.658s-2.098 1.07-2.921 1.893a8.921 8.921 0 0 0-1.934 2.921c-.439 1.125-.658 2.373-.658 3.744s.219 2.619.658 3.744c.466 1.125 1.111 2.098 1.934 2.921s1.797 1.454 2.921 1.893c1.125.439 2.359.658 3.703.658 1.426 0 2.743-.274 3.95-.823 1.207-.576 2.304-1.44 3.291-2.592l4.279 3.95c-1.371 1.673-3.072 2.949-5.102 3.826-2.002.878-4.265 1.317-6.789 1.317zm28.541 0c-2.277 0-4.389-.37-6.336-1.111-1.92-.741-3.593-1.783-5.019-3.127a14.673 14.673 0 0 1-3.291-4.731c-.768-1.81-1.152-3.785-1.152-5.925s.384-4.114 1.152-5.925c.795-1.81 1.906-3.387 3.333-4.731s3.099-2.386 5.019-3.127C299.5.79 301.585.42 303.834.42c2.277 0 4.361.37 6.254 1.111 1.92.741 3.579 1.783 4.978 3.127a14.397 14.397 0 0 1 3.333 4.731c.795 1.783 1.193 3.758 1.193 5.925 0 2.139-.398 4.128-1.193 5.966a14.368 14.368 0 0 1-3.333 4.731c-1.399 1.317-3.058 2.345-4.978 3.086-1.893.741-3.963 1.111-6.213 1.111zm-.041-5.678c1.289 0 2.469-.219 3.538-.658 1.097-.439 2.057-1.07 2.88-1.893s1.454-1.797 1.893-2.921c.466-1.125.699-2.373.699-3.744s-.233-2.619-.699-3.744a8.392 8.392 0 0 0-1.893-2.921c-.795-.823-1.742-1.454-2.839-1.893s-2.29-.658-3.579-.658c-1.289 0-2.482.219-3.579.658-1.07.439-2.016 1.07-2.839 1.893s-1.467 1.797-1.934 2.921c-.439 1.125-.658 2.373-.658 3.744 0 1.344.219 2.592.658 3.744a9.235 9.235 0 0 0 1.893 2.921c.823.823 1.783 1.454 2.88 1.893s2.29.658 3.579.658zm19.534 5.184V.914h6.665v23.369h14.441v5.431h-21.106zm19.972 0 12.837-28.8h6.583l12.878 28.8h-6.994L358.11 4.288h2.633l-10.574 25.426h-6.83zm6.419-6.171 1.769-5.061h14.811l1.81 5.061h-18.391zm32.151 6.171V6.345h-9.216V.914h25.097v5.431h-9.216v23.369h-6.665zm24.363-17.197h13.865v5.184h-13.865v-5.184zm.494 11.849h15.675v5.349h-22.299V.915h21.765v5.349h-15.141v18.103z"/></symbol><symbol id="icon-chocolate-2" viewBox="0 0 32 32"><path style="fill:var(--color1,#000)" d="m13.822 2.413 7.527 7.536.08-.08a.856.856 0 0 1 1.184-.013l.873.873c.305.305.315.77.083 1.094l-.004.007-.143.192 6.16 6.16c.55.55.55 1.43 0 1.98l-9.43 9.43c-.55.55-1.43.55-1.98 0l-4.447-4.447a.853.853 0 0 1-.612.317.842.842 0 0 1-.644-.246l-2.6-2.6a.856.856 0 0 1-.013-1.184l.006-.007.077-.076-7.527-7.527c-.55-.55-.55-1.43 0-1.98l9.43-9.43c.55-.55 1.43-.55 1.98 0v.001zm6.582 8.48-1.756-1.755a.59.59 0 0 0-.85 0l-3.58 3.58a.621.621 0 0 0-.179.43.602.602 0 0 0 .179.43l1.749 1.749.61-.61-1.565-1.565 3.21-3.22 1.569 1.574.613-.613zm-5.076 5.072-1.754-1.754a.59.59 0 0 0-.85 0l-3.59 3.59c-.24.23-.24.61 0 .85l1.752 1.752.616-.616-1.57-1.564 3.22-3.21 1.564 1.563.612-.611zM8.822 8.193l3.58 3.58c.24.24.62.24.85-.01l3.58-3.58a.57.57 0 0 0 .18-.42h.01c0-.15-.06-.31-.18-.43l-3.58-3.58a.602.602 0 0 0-.86 0l-3.58 3.59c-.24.23-.24.61 0 .85zm-5.07 5.07 3.58 3.58c.24.24.62.24.85 0l3.58-3.58a.578.578 0 0 0 .18-.43h.01c0-.16-.06-.31-.18-.43l-3.58-3.58a.59.59 0 0 0-.85 0l-3.59 3.59c-.24.23-.24.61 0 .85zm6.933 8.754 2.362 2.363 9.636-13.04-.655-.655-11.343 11.332z"/><path fill="#fd9222" style="fill:var(--color2,#fd9222)" d="m13.822 2.413 7.527 7.536.08-.08a.856.856 0 0 1 1.184-.013l.873.873c.305.305.315.77.083 1.094l-.004.007-.143.192 6.16 6.16c.55.55.55 1.43 0 1.98l-9.43 9.43c-.55.55-1.43.55-1.98 0l-4.447-4.447a.853.853 0 0 1-.612.317.842.842 0 0 1-.644-.246l-2.6-2.6a.856.856 0 0 1-.013-1.184l.006-.007.077-.076-7.527-7.527c-.55-.55-.55-1.43 0-1.98l9.43-9.43c.55-.55 1.43-.55 1.98 0v.001zm6.582 8.48-1.756-1.755a.59.59 0 0 0-.85 0l-3.58 3.58a.621.621 0 0 0-.179.43.602.602 0 0 0 .179.43l1.749 1.749.61-.61-1.565-1.565 3.21-3.22 1.569 1.574.613-.613zm-5.076 5.072-1.754-1.754a.59.59 0 0 0-.85 0l-3.59 3.59c-.24.23-.24.61 0 .85l1.752 1.752.616-.616-1.57-1.564 3.22-3.21 1.564 1.563.612-.611zM8.822 8.193l3.58 3.58c.24.24.62.24.85-.01l3.58-3.58a.57.57 0 0 0 .18-.42h.01c0-.15-.06-.31-.18-.43l-3.58-3.58a.602.602 0 0 0-.86 0l-3.58 3.59c-.24.23-.24.61 0 .85zm-5.07 5.07 3.58 3.58c.24.24.62.24.85 0l3.58-3.58a.578.578 0 0 0 .18-.43h.01c0-.16-.06-.31-.18-.43l-3.58-3.58a.59.59 0 0 0-.85 0l-3.59 3.59c-.24.23-.24.61 0 .85zm6.933 8.754 2.362 2.363 9.636-13.04-.655-.655-11.343 11.332z"/></symbol><symbol id="icon-dollar-sign" viewBox="0 0 32 32"><path fill="#fd9222" style="fill:var(--color2,#fd9222)" d="M16 2.667c-7.333 0-13.333 6-13.333 13.333s6 13.333 13.333 13.333 13.333-6 13.333-13.333S23.333 2.667 16 2.667zm0 24c-5.867 0-10.667-4.8-10.667-10.667S10.133 5.333 16 5.333 26.667 10.133 26.667 16 21.867 26.667 16 26.667z"/><path fill="#fd9222" style="fill:var(--color2,#fd9222)" d="M17.733 14.667h-3.467c-.667 0-1.2-.533-1.2-1.2s.533-1.2 1.2-1.2h4.933c.8 0 1.333-.533 1.333-1.333s-.533-1.333-1.333-1.333h-1.867v-1.2c0-.8-.533-1.333-1.333-1.333s-1.333.533-1.333 1.333v1.2h-.4c-2.133 0-3.867 1.733-3.867 3.867s1.733 3.867 3.867 3.867h3.333c.667 0 1.2.533 1.2 1.2s-.533 1.2-1.2 1.2h-4.933c-.8 0-1.333.533-1.333 1.333s.533 1.333 1.333 1.333h2v1.2c0 .8.533 1.333 1.333 1.333s1.333-.533 1.333-1.333v-1.2h.4c2.133 0 3.867-1.733 3.867-3.867s-1.733-3.867-3.867-3.867z"/></symbol><symbol id="icon-spoon" viewBox="0 0 32 32"><path fill="#fd9222" style="fill:var(--color2,#fd9222)" d="M15.451 14.106a5.154 5.154 0 0 1-1.177-3.282c0-4.324 5.181-8.642 10.362-8.642a5.183 5.183 0 0 1 5.181 5.182c0 5.182-4.318 10.364-8.646 10.364a5.151 5.151 0 0 1-3.281-1.177L5.132 29.312a1.73 1.73 0 0 1-2.445-2.445l12.764-12.761z"/><symbol id="icon-hamburger-m" viewBox="0 0 32 32"><path stroke-width="2.286" stroke-linecap="round" stroke-linejoin="round" d="M4 16h24M4 8h24M4 24h24"/></symbol><symbol id="icon-instagram-d-t" viewBox="0 0 32 32"><path stroke-width="2.667" stroke-linecap="round" stroke-linejoin="round" d="M22.667 2.667H9.334a6.667 6.667 0 0 0-6.667 6.667v13.333a6.667 6.667 0 0 0 6.667 6.667h13.333a6.667 6.667 0 0 0 6.667-6.667V9.334a6.667 6.667 0 0 0-6.667-6.667z"/><path stroke-width="2.667" stroke-linecap="round" stroke-linejoin="round" d="M21.334 15.16a5.329 5.329 0 0 1-2.878 5.546 5.338 5.338 0 0 1-6.169-.992 5.33 5.33 0 0 1 1.316-8.505 5.336 5.336 0 0 1 6.228.962 5.328 5.328 0 0 1 1.504 2.989zM23.333 8.667h.013"/></symbol><symbol id="icon-logo-d" viewBox="0 0 32 32"><path fill="none" stroke="#fd9222" stroke-width="2.667" stroke-linecap="round" stroke-linejoin="round" style="stroke:var(--color1,#fd9222)" d="M22.301 23.88 8.116 15.016m3.912-6.417 14.185 8.864m-14.916 8.401 11.736-19.25m4.81 8.175c-3.04-1.899-4.234-3.384-2.278-6.592l-9.626-6.015-11.736 19.25 14.186 8.864 9.454-15.507z"/></symbol><symbol id="icon-price" viewBox="0 0 32 32"><path fill="#fd9222" style="fill:var(--color1,#fd9222)" d="M16 2.667c-7.333 0-13.333 6-13.333 13.333s6 13.333 13.333 13.333 13.333-6 13.333-13.333S23.333 2.667 16 2.667zm0 24c-5.867 0-10.667-4.8-10.667-10.667S10.133 5.333 16 5.333 26.667 10.133 26.667 16 21.867 26.667 16 26.667z"/><path fill="#fd9222" style="fill:var(--color1,#fd9222)" d="M17.733 14.667h-3.467c-.667 0-1.2-.533-1.2-1.2s.533-1.2 1.2-1.2h4.933c.8 0 1.333-.533 1.333-1.333s-.533-1.333-1.333-1.333h-1.867v-1.2c0-.8-.533-1.333-1.333-1.333s-1.333.533-1.333 1.333v1.2h-.4c-2.133 0-3.867 1.733-3.867 3.867s1.733 3.867 3.867 3.867h3.333c.667 0 1.2.533 1.2 1.2s-.533 1.2-1.2 1.2h-4.933c-.8 0-1.333.533-1.333 1.333s.533 1.333 1.333 1.333h2v1.2c0 .8.533 1.333 1.333 1.333s1.333-.533 1.333-1.333v-1.2h.4c2.133 0 3.867-1.733 3.867-3.867s-1.733-3.867-3.867-3.867z"/></symbol><symbol id="icon-production" viewBox="0 0 32 32"><path fill="#fd9222" style="fill:var(--color1,#fd9222)" d="M15.451 14.106a5.154 5.154 0 0 1-1.177-3.282c0-4.324 5.181-8.642 10.362-8.642a5.183 5.183 0 0 1 5.181 5.182c0 5.182-4.317 10.364-8.646 10.364a5.15 5.15 0 0 1-3.281-1.177L5.132 29.312a1.73 1.73 0 0 1-2.445-2.445l12.764-12.761z"/></symbol><symbol id="icon-scroll-d-t" viewBox="0 0 32 32"><path fill="#fd9222" style="fill:var(--color1,#fd9222)" d="M17.489 18.933a2.082 2.082 0 0 1-2.294.459 2.077 2.077 0 0 1-.682-.459L4.917 9.316a2.108 2.108 0 0 0-1.488-.62 2.104 2.104 0 0 0-1.488.62 2.097 2.097 0 0 0 0 2.954l9.617 9.617a6.286 6.286 0 0 0 8.884 0l9.617-9.617a2.099 2.099 0 0 0-1.488-3.574 2.104 2.104 0 0 0-1.488.62l-9.596 9.617z"/></symbol><symbol id="icon-taste" viewBox="0 0 32 32"><path style="fill:var(--color2,#000)" d="m13.511.472 8.602 8.613.091-.091a.982.982 0 0 1 1.354-.015l.998.998c.349.349.36.88.095 1.25l-.005.008-.163.219 7.04 7.04a1.593 1.593 0 0 1 0 2.263L20.746 31.534a1.593 1.593 0 0 1-2.263 0l-5.082-5.082a.952.952 0 0 1-.7.362.964.964 0 0 1-.736-.282l-2.971-2.971a.98.98 0 0 1-.015-1.354l.007-.008.088-.087L.472 13.51a1.593 1.593 0 0 1 0-2.263L11.249.47a1.593 1.593 0 0 1 2.263 0v.001zm7.522 9.691-2.007-2.006a.676.676 0 0 0-.972 0l-4.091 4.091a.686.686 0 0 0-.204.491.694.694 0 0 0 .204.491l1.999 1.999.697-.697-1.789-1.789 3.669-3.68 1.793 1.799.701-.701zm-5.801 5.797-2.005-2.005a.676.676 0 0 0-.972 0l-4.103 4.103a.676.676 0 0 0 0 .971l2.002 2.002.704-.704-1.794-1.787 3.68-3.669 1.787 1.786.699-.698zM7.797 7.078l4.091 4.091a.667.667 0 0 0 .971-.011l4.091-4.091a.654.654 0 0 0 .206-.48h.011a.703.703 0 0 0-.206-.491L12.87 2.005a.688.688 0 0 0-.982 0L7.797 6.108a.676.676 0 0 0 0 .971zm-5.795 5.794 4.091 4.091a.676.676 0 0 0 .971 0l4.091-4.091a.665.665 0 0 0 .205-.491h.011a.683.683 0 0 0-.206-.491L7.074 7.799a.676.676 0 0 0-.972 0l-4.103 4.103a.676.676 0 0 0 0 .971zm7.924 10.005 2.699 2.701 11.013-14.903-.749-.749L9.926 22.877z"/><path fill="#fd9222" style="fill:var(--color1,#fd9222)" d="m13.511.472 8.602 8.613.091-.091a.982.982 0 0 1 1.354-.015l.998.998c.349.349.36.88.095 1.25l-.005.008-.163.219 7.04 7.04a1.593 1.593 0 0 1 0 2.263L20.746 31.534a1.593 1.593 0 0 1-2.263 0l-5.082-5.082a.952.952 0 0 1-.7.362.964.964 0 0 1-.736-.282l-2.971-2.971a.98.98 0 0 1-.015-1.354l.007-.008.088-.087L.472 13.51a1.593 1.593 0 0 1 0-2.263L11.249.47a1.593 1.593 0 0 1 2.263 0v.001zm7.522 9.691-2.007-2.006a.676.676 0 0 0-.972 0l-4.091 4.091a.686.686 0 0 0-.204.491.694.694 0 0 0 .204.491l1.999 1.999.697-.697-1.789-1.789 3.669-3.68 1.793 1.799.701-.701zm-5.801 5.797-2.005-2.005a.676.676 0 0 0-.972 0l-4.103 4.103a.676.676 0 0 0 0 .971l2.002 2.002.704-.704-1.794-1.787 3.68-3.669 1.787 1.786.699-.698zM7.797 7.078l4.091 4.091a.667.667 0 0 0 .971-.011l4.091-4.091a.654.654 0 0 0 .206-.48h.011a.703.703 0 0 0-.206-.491L12.87 2.005a.688.688 0 0 0-.982 0L7.797 6.108a.676.676 0 0 0 0 .971zm-5.795 5.794 4.091 4.091a.676.676 0 0 0 .971 0l4.091-4.091a.665.665 0 0 0 .205-.491h.011a.683.683 0 0 0-.206-.491L7.074 7.799a.676.676 0 0 0-.972 0l-4.103 4.103a.676.676 0 0 0 0 .971zm7.924 10.005 2.699 2.701 11.013-14.903-.749-.749L9.926 22.877z"/></symbol><symbol id="icon-twitter-d-t" viewBox="0 0 32 32"><path stroke-width="2.667" stroke-linecap="round" stroke-linejoin="round" d="M30.667 4a14.542 14.542 0 0 1-4.187 2.04 5.975 5.975 0 0 0-6.637-1.661A5.981 5.981 0 0 0 16 10.04v1.333c-2.343.061-4.665-.459-6.759-1.513S4.68 6.297 3.333 4.379c0 0-4.667 12.954 7.333 18.287a15.519 15.519 0 0 1-9.333 2.667C13.333 32 28 25.333 28 10a5.966 5.966 0 0 0-.107-1.107A10.288 10.288 0 0 0 30.666 4z"/></symbol><symbol id="icon-x-close" viewBox="0 0 32 32"><path stroke-width="2.286" stroke-linecap="round" stroke-linejoin="round" d="M24 8 8 24M8 8l16 16"/></symbol><symbol id="icon-x-close-orange" viewBox="0 0 32 32"><path fill="none" stroke="#fd9222" stroke-width="2.286" stroke-linecap="round" stroke-linejoin="round" style="stroke:var(--color1,#fd9222)" d="M24 8 8 24M8 8l16 16"/></symbol></symbol></defs></svg>